<svg width="959" height="255" viewBox="0 0 959 255" fill="none" xmlns="http://www.w3.org/2000/svg">
<g clip-path="url(#clip0_204_157)">
<path d="M0 27.25C19.0533 25.1767 38.1067 23.2 57.16 21.32C91.09 17.25 115.16 33.93 117.74 68.67C118.05 72.32 118.2 74.14 118.51 77.79C120.26 95.97 116.2 115.79 98.39 124.49L98.44 125.14C119.97 129.86 128.55 150.27 129.98 170.31L131.61 189.85C134.61 222.92 114.85 246.5 81.56 248.85C62.7333 250.703 43.9167 252.65 25.11 254.69L0 27.25ZM61.78 114.47C75.78 113.23 84.52 102.58 81.78 88.26C81.31 83.18 81.07 80.64 80.6 75.57C80.47 62.76 72.66 52.57 59.27 53.95C52.02 54.66 48.4 55.02 41.15 55.76L47.27 115.92C53.08 115.33 55.98 115.04 61.78 114.47ZM78.42 216.3C91.33 215.2 97.42 204.5 95.11 192.07C94.38 184.13 94.02 180.15 93.28 172.21C92.42 155.66 84.15 144.73 66.98 146.8C60.42 147.44 57.15 147.8 50.59 148.43C52.9633 171.763 55.33 195.07 57.69 218.35C65.98 217.51 70.13 217.1 78.42 216.3V216.3Z" fill="#F80000"/>
<path d="M150.14 188.35L140.69 68.44C137.12 33.65 159.88 9.43999 193.83 6.92999C228.24 4.36999 252.96 26.52 254.53 60.93C256.63 100.97 258.723 141.01 260.81 181.05C262.81 214.05 242.89 239.84 209.22 241.71C175.99 243.61 151.93 221.87 150.14 188.35ZM224.49 185.45C221.95 143.91 219.417 102.367 216.89 60.82C217.22 48.17 208.59 38.82 195.97 39.55C182.66 40.36 177.04 50.82 177.97 63.37C180.877 104.89 183.783 146.407 186.69 187.92C187.46 200.1 193.93 210.06 207.04 209.15C219.56 208.28 226.27 197.57 224.49 185.45V185.45Z" fill="#F80000"/>
<path d="M282.69 180.01C280.81 139.957 278.927 99.9067 277.04 59.86C274.58 24.99 298.04 1.51 332.04 0.0600045C366.51 -1.4 390.5 21.53 390.99 56.06C391.81 96.14 392.637 136.223 393.47 176.31C394.39 209.31 373.71 234.51 340 235.31C306.77 236.07 283.43 213.56 282.69 180.01ZM357.06 179.46C355.847 137.86 354.63 96.26 353.41 54.66C354.14 42.03 345.82 32.36 333.18 32.73C319.86 33.12 313.91 43.41 314.48 55.97C316.08 97.5634 317.677 139.153 319.27 180.74C319.65 192.93 325.79 203.1 338.93 202.6C351.43 202.13 358.46 191.63 357.08 179.46H357.06Z" fill="#F80000"/>
<path d="M415.47 1.31C428.137 1.12333 440.803 0.990004 453.47 0.910004C453.857 66.2833 454.253 131.653 454.66 197.02C474.58 196.893 494.5 196.917 514.42 197.09L514.19 229.77C482.41 229.563 450.63 229.667 418.85 230.08C417.73 153.82 416.603 77.5633 415.47 1.31Z" fill="#F80000"/>
<path d="M534.38 1.16998C567.92 1.62998 601.443 2.42999 634.95 3.56999L633.8 36.24C613.133 35.5267 592.437 34.94 571.71 34.48C571.27 55.72 570.823 76.96 570.37 98.2C586.37 98.5466 602.37 98.9767 618.37 99.49L617.37 132.16C601.49 131.64 585.613 131.213 569.74 130.88L567.64 230.55C555.64 230.303 543.64 230.103 531.64 229.95C532.527 153.69 533.44 77.43 534.38 1.16998Z" fill="#F80000"/>
<path d="M653.26 4.26001C665.927 4.76001 678.593 5.31667 691.26 5.93001C688.1 71.2233 684.943 136.503 681.79 201.77C701.703 202.73 721.603 203.837 741.49 205.09L739.49 237.71C707.75 235.77 676.003 234.147 644.25 232.84C647.237 156.653 650.24 80.46 653.26 4.26001Z" fill="#F80000"/>
<path d="M772.08 10.58C784.747 11.4333 797.397 12.3333 810.03 13.28L792.75 241.43C780.75 240.53 768.75 239.677 756.75 238.87L772.08 10.58Z" fill="#F80000"/>
<path d="M861.71 129.77C851.443 91.39 840.873 53.0933 830 14.88C843.333 15.9466 856.667 17.08 870 18.28C876.28 43.5467 882.44 68.8433 888.48 94.17L889.16 94.23C900.12 70.53 911.187 46.88 922.36 23.28C934.3 24.4867 946.237 25.7467 958.17 27.06C940.27 62.54 922.667 98.1567 905.36 133.91C915.62 174.097 925.54 214.363 935.12 254.71C922.513 253.323 909.9 251.99 897.28 250.71C891.22 223.377 885.023 196.043 878.69 168.71L878.02 168.65C866.453 194.243 855.023 219.893 843.73 245.6C832.397 244.62 821.063 243.67 809.73 242.75C826.737 204.93 844.063 167.27 861.71 129.77Z" fill="#F80000"/>
</g>
<defs>
<clipPath id="clip0_204_157">
<rect width="958.15" height="254.67" fill="white"/>
</clipPath>
</defs>
</svg>
